<?xml version="1.0" standalone="no"?><!DOCTYPE svg PUBLIC "-//W3C//DTD SVG 1.1//EN" "http://www.w3.org/Graphics/SVG/1.1/DTD/svg11.dtd"><svg t="1604455569644" class="icon" viewBox="0 0 1024 1024" version="1.1" xmlns="http://www.w3.org/2000/svg" p-id="2079" xmlns:xlink="http://www.w3.org/1999/xlink" width="48" height="48"><defs><style type="text/css"></style></defs><path d="M512 512m-512 0a512 512 0 1 0 1024 0 512 512 0 1 0-1024 0Z" fill="#E92E2E" p-id="2080"></path><path d="M652.544 307.072a47.36 47.36 0 0 1 66.389333 0 47.36 47.36 0 0 1 0 66.346667l-340.906666 340.906666c-18.133333 18.133333-48.298667 18.133333-66.389334 0s-18.090667-48.213333 0-66.346666l340.906667-340.906667z" fill="#FFFFFF" p-id="2081"></path><path d="M721.92 647.978667c18.133333 18.090667 18.133333 48.256 0 66.389333s-48.213333 18.090667-66.346667 0l-340.906666-340.906667c-18.133333-18.133333-18.133333-48.298667 0-66.389333s48.213333-18.133333 66.346666 0l340.906667 340.906667z" fill="#FFFFFF" p-id="2082"></path></svg>